HIERARCHY
ROOT Hips
{
	OFFSET	0.00	0.00	0.00
	CHANNELS 6 Xposition Yposition Zposition Zrotation Xrotation Yrotation
	JOINT LeftUpLeg
	{
		OFFSET	 0.126116	-0.014019	-0.065224
		CHANNELS 3 Zrotation Xrotation Yrotation
		JOINT LeftLeg
		{
			OFFSET	 0.000000	 0.000000	 0.569914
			CHANNELS 3 Zrotation Xrotation Yrotation
			JOINT LeftFoot
			{
				OFFSET	 0.000000	 0.000000	 0.544423
				CHANNELS 3 Zrotation Xrotation Yrotation
				JOINT LeftToeBase
				{
					OFFSET	 0.000000	 0.000000	 0.207117
					CHANNELS 3 Zrotation Xrotation Yrotation
					End Site
					{
						OFFSET	 0.000000	 0.000000	 0.207117
					}
				}
			}
		}
	}
	JOINT RightUpLeg
	{
		OFFSET	-0.124023	-0.008373	-0.065224
		CHANNELS 3 Zrotation Xrotation Yrotation
		JOINT RightLeg
		{
			OFFSET	 0.000000	 0.000000	 0.570047
			CHANNELS 3 Zrotation Xrotation Yrotation
			JOINT RightFoot
			{
				OFFSET	 0.000000	 0.000000	 0.544354
				CHANNELS 3 Zrotation Xrotation Yrotation
				JOINT RightToeBase
				{
					OFFSET	 0.000000	 0.000000	 0.207540
					CHANNELS 3 Zrotation Xrotation Yrotation
					End Site
					{
						OFFSET	 0.000000	 0.000000	 0.207540
					}
				}
			}
		}
	}
	JOINT Spine
	{
		OFFSET	 0.000184	-0.007763	 0.117403
		CHANNELS 3 Zrotation Xrotation Yrotation
		JOINT Spine1
		{
			OFFSET	 0.000000	 0.000000	 0.137269
			CHANNELS 3 Zrotation Xrotation Yrotation
			JOINT Spine2
			{
				OFFSET	 0.000000	 0.000000	 0.156879
				CHANNELS 3 Zrotation Xrotation Yrotation
				JOINT LeftShoulder
				{
					OFFSET	 0.080501	-0.002496	 0.160144
					CHANNELS 3 Zrotation Xrotation Yrotation
					JOINT LeftArm
					{
						OFFSET	 0.000000	 0.000000	 0.164363
						CHANNELS 3 Zrotation Xrotation Yrotation
						JOINT LeftForeArm
						{
							OFFSET	 0.000000	 0.000000	 0.364576
							CHANNELS 3 Zrotation Xrotation Yrotation
							JOINT LeftHand
							{
								OFFSET	 0.000000	 0.000000	 0.360812
								CHANNELS 3 Zrotation Xrotation Yrotation
								JOINT LeftHandIndex1
								{
									OFFSET	 0.000000	 0.000000	 0.086006
									CHANNELS 3 Zrotation Xrotation Yrotation
									JOINT LeftHandIndex2
									{
										OFFSET	 0.000000	 0.000000	 0.047236
										CHANNELS 3 Zrotation Xrotation Yrotation
										JOINT LeftHandIndex3
										{
											OFFSET	-0.004284	-0.000551	 0.038166
											CHANNELS 3 Zrotation Xrotation Yrotation
											End Site
											{
												OFFSET	-0.004284	-0.000551	 0.038166
											}
										}
									}
								}
							}
						}
					}
				}
				JOINT Neck
				{
					OFFSET	 0.000000	 0.000000	 0.176489
					CHANNELS 3 Zrotation Xrotation Yrotation
					JOINT Head
					{
						OFFSET	 0.000000	-0.001747	 0.077940
						CHANNELS 3 Zrotation Xrotation Yrotation
						End Site
						{
							OFFSET	 0.000000	-0.001747	 0.077940
						}
					}
				}
				JOINT RightShoulder
				{
					OFFSET	-0.080363	 0.000306	 0.159706
					CHANNELS 3 Zrotation Xrotation Yrotation
					JOINT RightArm
					{
						OFFSET	 0.000000	 0.000000	 0.164196
						CHANNELS 3 Zrotation Xrotation Yrotation
						JOINT RightForeArm
						{
							OFFSET	 0.000000	 0.000000	 0.365611
							CHANNELS 3 Zrotation Xrotation Yrotation
							JOINT RightHand
							{
								OFFSET	 0.000000	 0.000000	 0.360648
								CHANNELS 3 Zrotation Xrotation Yrotation
								JOINT RightHandIndex1
								{
									OFFSET	 0.000000	 0.000000	 0.069977
									CHANNELS 3 Zrotation Xrotation Yrotation
									JOINT RightHandIndex2
									{
										OFFSET	 0.000000	 0.000000	 0.052305
										CHANNELS 3 Zrotation Xrotation Yrotation
										JOINT RightHandIndex3
										{
											OFFSET	 0.009002	-0.000782	 0.042196
											CHANNELS 3 Zrotation Xrotation Yrotation
											End Site
											{
												OFFSET	 0.009002	-0.000782	 0.042196
											}
										}
									}
								}
							}
						}
					}
				}
			}
		}
	}
}
MOTION
Frames:    5
Frame Time: 0.03333334
-0.057304	-2.234366	 1.240660	 4.305371	-1.520002	-2.924697	 0.386213	-7.633989	-171.254800	 0.518106	-28.675540	 0.064515	 23.688650	 70.435750	-26.986440	-2.370858	 31.368560	-0.064360	-4.079660	-29.089970	-176.575000	 10.415900	-52.691000	 8.928839	 9.101451	 66.527950	-4.740086	 2.358143	 33.122060	 0.106051	-4.644493	 8.851635	 1.976926	-1.400388	 2.022623	-0.688802	 1.246686	-1.980562	 0.648445	-93.819020	 58.905680	 175.649900	 26.667330	 47.112830	-20.388270	-1.356299	-3.121315	-27.433360	-0.446543	-12.309770	-6.551772	-4.869347	 19.242630	-2.786462	-3.888752	 21.380230	 2.210094	-4.808246	 5.545631	 0.146960	-0.111094	-5.033106	 0.166188	-0.968194	 2.255493	 2.778723	 89.816450	 61.601860	-179.918300	-20.507640	 52.426690	 12.578910	-1.500436	-1.997752	 10.307370	-4.390006	 1.845093	 0.692631	 6.301159	 25.648820	-0.566002	 1.777383	 45.559820	-6.896506	 0.405385	 24.803960	 3.629999
-0.058361	-2.254100	 1.241598	 5.408941	-0.789454	-2.861567	-0.685732	-7.493094	-171.438600	 1.048870	-28.502430	 0.332210	 22.985470	 70.426810	-26.754350	-2.368941	 31.690830	-0.071645	-6.518896	-31.065820	-176.730800	 11.317940	-50.235110	 9.338774	 16.997600	 74.017230	-14.196360	 2.358966	 33.001170	 0.103249	-5.886799	 8.442801	 1.828104	-1.624777	 1.493172	-0.851360	 1.770473	-1.906774	 0.968516	-94.044970	 59.017800	 175.153900	 27.583000	 45.730080	-21.174030	-2.239325	-2.920172	-29.694000	-0.072128	-13.733350	-8.145503	-4.866230	 19.325010	-2.792397	-3.878215	 21.515130	 2.199388	-4.806135	 5.570581	 0.145501	-0.051828	-5.095575	 0.212863	-0.253536	 2.123649	 2.616715	 89.739570	 61.697480	 179.898400	-19.769050	 53.002080	 11.633990	-2.030633	-1.846067	 9.092358	-4.603516	 1.424456	 0.413283	 6.283554	 24.066660	-0.544387	 1.982988	 43.900230	-7.079819	 0.694817	 23.531920	 3.483740
-0.059205	-2.273832	 1.241884	 6.108966	-0.024990	-2.948049	-1.340310	-7.247248	-171.487000	 1.301374	-28.170290	 0.447888	 22.563850	 70.570950	-26.508860	-2.367290	 31.961020	-0.077783	-8.143553	-33.004490	-176.823600	 11.995230	-47.525460	 9.477527	 31.166450	 78.291820	-29.932990	 2.359699	 32.891680	 0.100713	-6.621377	 7.910367	 1.735379	-1.786724	 1.211318	-0.862558	 2.109978	-1.893701	 1.137109	-94.240320	 59.000340	 174.739600	 27.907180	 44.365510	-21.661510	-2.713458	-2.899414	-31.983590	 0.212191	-15.353920	-8.570054	-4.857400	 19.548680	-2.806762	-3.864715	 21.687360	 2.185667	-4.799332	 5.650719	 0.140809	-0.017349	-5.135372	 0.271768	 0.194040	 2.033465	 2.563947	 89.649280	 61.807420	 179.681500	-19.107300	 53.490480	 10.674030	-2.812877	-1.788058	 8.237103	-5.049704	 0.839314	-0.032891	 6.260255	 22.513910	-0.576267	 2.146136	 42.503380	-7.223988	 1.022245	 22.058080	 3.324742
-0.059819	-2.299128	 1.241466	 6.473733	 0.681936	-3.276846	-1.652635	-6.420123	-171.319900	 1.476208	-27.459070	 0.518110	 22.512860	 70.962080	-26.586230	-2.363857	 32.503460	-0.090197	-8.216027	-34.947880	-176.441900	 12.206150	-43.816910	 9.041069	 50.535440	 79.424470	-50.869030	 2.359690	 32.894040	 0.100760	-7.097748	 7.265418	 1.874048	-1.897549	 1.360493	-0.830238	 2.426033	-1.991110	 1.251265	-94.409180	 58.922970	 174.391900	 27.808520	 42.686330	-22.336350	-3.512661	-2.650448	-34.622260	 0.009064	-17.480640	-8.067505	-4.840378	 19.929380	-2.821113	-3.843360	 21.958090	 2.163969	-4.785177	 5.817230	 0.131019	 0.002541	-5.210028	 0.325740	 0.553062	 1.939282	 2.573400	 89.522410	 61.957810	 179.373900	-18.185930	 54.016170	 9.380515	-4.089578	-1.825115	 7.591217	-5.769909	-0.031482	-1.074859	 6.225787	 20.574010	-0.646169	 2.334034	 40.800050	-7.388480	 1.445570	 20.098670	 3.129778
-0.060696	-2.327969	 1.240128	 6.619327	 1.010921	-3.569650	-1.856787	-4.944966	-171.209900	 1.588139	-26.675910	 0.554699	 22.001610	 70.966250	-26.132630	-2.355630	 33.710410	-0.118241	-6.727766	-36.114290	-175.656400	 11.499480	-39.309840	 7.836668	 84.276150	 79.015460	-85.343170	 2.349519	 34.319190	 0.134219	-7.508657	 6.808243	 2.048004	-1.951974	 1.949256	-0.773075	 2.693676	-2.252079	 1.324227	-94.497380	 58.864180	 174.213800	 27.019870	 41.163830	-23.101220	-4.064330	-2.469881	-36.941020	-0.461920	-19.462810	-7.715477	-4.825673	 20.295560	-2.845373	-3.816713	 22.293150	 2.136911	-4.763668	 6.069421	 0.116114	 0.035861	-5.302059	 0.346832	 0.846260	 1.830109	 2.523561	 89.424610	 62.034760	 179.135400	-16.995960	 54.461770	 7.566652	-5.471656	-1.983276	 7.450712	-6.405121	-1.429863	-2.457236	 6.187372	 18.502190	-0.717053	 2.602096	 38.179620	-7.619896	 1.887235	 17.991100	 2.939747
